<svg width="16" height="16" viewBox="0 0 16 16" fill="none" xmlns="http://www.w3.org/2000/svg">
<g clip-path="url(#clip0_196_86)">
<path d="M10.8572 1.71429H12.5715C12.8746 1.71429 13.1653 1.8347 13.3796 2.04903C13.5939 2.26336 13.7143 2.55405 13.7143 2.85715V14.2857C13.7143 14.5888 13.5939 14.8795 13.3796 15.0938C13.1653 15.3082 12.8746 15.4286 12.5715 15.4286H3.42862C3.12552 15.4286 2.83483 15.3082 2.6205 15.0938C2.40617 14.8795 2.28577 14.5888 2.28577 14.2857V2.85715C2.28577 2.55405 2.40617 2.26336 2.6205 2.04903C2.83483 1.8347 3.12552 1.71429 3.42862 1.71429H5.14291" stroke="#000001" stroke-linecap="round" stroke-linejoin="round"/>
<path d="M9.71437 0.571442H6.2858C5.65462 0.571442 5.14294 1.08312 5.14294 1.7143V2.28573C5.14294 2.91691 5.65462 3.42858 6.2858 3.42858H9.71437C10.3456 3.42858 10.8572 2.91691 10.8572 2.28573V1.7143C10.8572 1.08312 10.3456 0.571442 9.71437 0.571442Z" stroke="#000001" stroke-linecap="round" stroke-linejoin="round"/>
</g>
<defs>
<clipPath id="clip0_196_86">
<rect width="16" height="16" fill="white"/>
</clipPath>
</defs>
</svg>
