<svg width="15" height="15" viewBox="0 0 15 15" fill="none" xmlns="http://www.w3.org/2000/svg">
<g clip-path="url(#clip0_196_68)">
<path d="M14.2827 3.21429C14.2258 3.13682 14.1481 3.07733 14.0587 3.04286L7.65866 0.610717C7.5981 0.584168 7.53273 0.570465 7.46666 0.570465C7.40058 0.570465 7.33522 0.584168 7.27466 0.610717L0.874659 3.08572C0.790104 3.10821 0.71288 3.15254 0.650659 3.21429C0.57615 3.30483 0.534743 3.41826 0.533325 3.53572V11.3786C0.534708 11.4856 0.567961 11.5897 0.628797 11.6775C0.689634 11.7654 0.775266 11.8329 0.874659 11.8714L7.27466 14.3464H7.46666H7.65866L14.0587 11.8714C14.1581 11.8329 14.2437 11.7654 14.3045 11.6775C14.3654 11.5897 14.3986 11.4856 14.4 11.3786V3.57857C14.409 3.4465 14.367 3.31602 14.2827 3.21429V3.21429Z" stroke="#000001" stroke-linecap="round" stroke-linejoin="round"/>
<path d="M7.46667 14.4214V5.89285" stroke="#000001" stroke-linecap="round" stroke-linejoin="round"/>
<path d="M7.46667 5.89285V14.4214" stroke="#000001" stroke-linecap="round" stroke-linejoin="round"/>
<path d="M0.650635 3.25714L7.46663 5.89286L14.2826 3.25714" stroke="#000001" stroke-linecap="round" stroke-linejoin="round"/>
</g>
<defs>
<clipPath id="clip0_196_68">
<rect width="15" height="15" fill="white"/>
</clipPath>
</defs>
</svg>
