<svg width="15" height="15" viewBox="0 0 15 15" fill="none" xmlns="http://www.w3.org/2000/svg">
<g clip-path="url(#clip0_196_59)">
<path d="M4.82148 0.535706H1.6072C1.01546 0.535706 0.535767 1.0154 0.535767 1.60713V4.82142C0.535767 5.41315 1.01546 5.89285 1.6072 5.89285H4.82148C5.41321 5.89285 5.89291 5.41315 5.89291 4.82142V1.60713C5.89291 1.0154 5.41321 0.535706 4.82148 0.535706Z" stroke="black" stroke-linecap="round" stroke-linejoin="round"/>
<path d="M13.3929 0.535706H10.1786C9.58687 0.535706 9.10718 1.0154 9.10718 1.60713V4.82142C9.10718 5.41315 9.58687 5.89285 10.1786 5.89285H13.3929C13.9846 5.89285 14.4643 5.41315 14.4643 4.82142V1.60713C14.4643 1.0154 13.9846 0.535706 13.3929 0.535706Z" stroke="black" stroke-linecap="round" stroke-linejoin="round"/>
<path d="M4.82148 9.10715H1.6072C1.01546 9.10715 0.535767 9.58684 0.535767 10.1786V13.3929C0.535767 13.9846 1.01546 14.4643 1.6072 14.4643H4.82148C5.41321 14.4643 5.89291 13.9846 5.89291 13.3929V10.1786C5.89291 9.58684 5.41321 9.10715 4.82148 9.10715Z" stroke="black" stroke-linecap="round" stroke-linejoin="round"/>
<path d="M13.3929 9.10715H10.1786C9.58687 9.10715 9.10718 9.58684 9.10718 10.1786V13.3929C9.10718 13.9846 9.58687 14.4643 10.1786 14.4643H13.3929C13.9846 14.4643 14.4643 13.9846 14.4643 13.3929V10.1786C14.4643 9.58684 13.9846 9.10715 13.3929 9.10715Z" stroke="black" stroke-linecap="round" stroke-linejoin="round"/>
</g>
<defs>
<clipPath id="clip0_196_59">
<rect width="15" height="15" fill="white"/>
</clipPath>
</defs>
</svg>
