<svg width="13" height="13" viewBox="0 0 13 13" fill="none" xmlns="http://www.w3.org/2000/svg">
<path d="M6.49986 8.07143L6.14631 8.42498L6.49986 8.77853L6.85341 8.42498L6.49986 8.07143ZM6.99986 0.999998C6.99986 0.723855 6.776 0.499998 6.49986 0.499998C6.22372 0.499998 5.99986 0.723855 5.99986 0.999998L6.99986 0.999998ZM2.21774 4.49641L6.14631 8.42498L6.85341 7.71787L2.92484 3.7893L2.21774 4.49641ZM6.85341 8.42498L10.782 4.49641L10.0749 3.7893L6.14631 7.71787L6.85341 8.42498ZM6.99986 8.07143L6.99986 0.999998L5.99986 0.999998L5.99986 8.07143L6.99986 8.07143Z" fill="#222222"/>
<path d="M1 9.64285L1 10.4286C1 11.2964 1.70355 12 2.57143 12L10.4286 12C11.2964 12 12 11.2964 12 10.4286V9.64285" stroke="#222222"/>
</svg>
