<svg width="241" height="115" viewBox="0 0 241 115" fill="none" xmlns="http://www.w3.org/2000/svg">
<path d="M117.258 0.444809C119.229 -0.124197 121.325 -0.0892572 123.302 0.439818C123.69 2.52118 123.844 4.74729 123.147 6.77874C122.53 7.59731 121.4 7.45256 120.524 7.73208C123.247 10.5871 125.751 13.8214 126.702 17.7396C139.66 17.8194 152.638 17.8294 165.591 17.5948C165.745 17.3902 166.064 16.9809 166.218 16.7763C167.234 16.7313 168.239 16.8961 169.195 17.2604C168.837 25.1217 169.091 33.0029 168.767 40.8642C169.444 41.1387 170.285 41.1736 170.828 41.7327C171.321 43.4247 171.047 45.2465 170.624 46.9286C170.957 46.9436 171.296 46.9136 171.635 46.9436C171.724 48.1814 171.316 49.4142 171.186 50.6471C171.201 49.8535 171.211 49.0599 171.221 48.2712C170.893 47.9218 170.569 47.5774 170.246 47.2281C168.707 47.3079 167.169 47.3229 165.631 47.258C165.661 49.3144 165.711 51.4357 165.019 53.4023C164.471 54.8198 163.197 55.7382 162.136 56.7464C164.376 56.6765 166.547 57.3504 168.772 57.4053C170.599 56.971 172.287 56.1075 173.974 55.3139C173.088 49.9184 173.725 44.2333 175.771 39.1622C176.374 37.4901 177.972 36.387 179.719 36.2273C184.498 35.4536 189.357 35.843 194.181 35.7831C199.472 35.8729 204.874 35.813 210.016 37.2505C213.162 38.0741 215.338 40.7494 216.831 43.4946C218.195 46.0351 218.514 48.9401 219.335 51.6603C219.405 54.5902 220.873 57.2406 221.157 60.1455C222.496 70.4126 222.989 80.7695 223.318 91.1114C223.477 93.7817 223.134 96.4371 222.934 99.0924C225.11 99.6415 227.325 100.036 229.476 100.68C232.891 101.947 236.58 102.047 240.174 102.307C238.008 103.644 235.44 103.54 233.04 104.074C230.178 105.007 227.181 105.381 224.283 106.19C224.343 108.581 224.697 110.997 224.378 113.382C223.492 114.88 221.461 113.912 220.072 114.056C211.276 114.021 202.484 114.466 193.703 114.86C191.463 114.855 189.202 115.065 186.982 114.74C185.449 113.882 185.738 111.072 183.717 110.892C180.59 110.418 177.419 110.692 174.273 110.672C169.469 110.772 164.665 110.617 159.866 110.527C146.754 110.767 133.641 110.577 120.529 110.677C107.093 110.587 93.6567 110.752 80.2206 110.532C74.2469 110.712 68.2681 110.732 62.2893 110.627C60.1686 110.662 57.9683 110.483 55.9223 111.156C54.7225 112.249 54.7922 114.875 52.7811 114.86C46.8222 115.114 40.8783 114.431 34.9244 114.356C29.2642 114.271 23.5991 113.762 17.9439 114.191C17.1673 114.346 16.1767 113.941 16.1219 113.058C15.9327 110.767 16.2016 108.476 16.2762 106.19C11.8606 105.262 7.54952 103.899 3.0642 103.375C2.14325 103.16 1.29198 102.721 0.425781 102.357C3.89556 101.972 7.47983 102.002 10.7953 100.765C13.0305 100.066 15.3503 99.6714 17.6203 99.0924C17.4959 96.7615 17.1076 94.4456 17.2221 92.1096C17.461 82.4365 17.9887 72.7684 19.0092 63.1502C19.288 60.3651 19.7759 57.5949 20.662 54.9396C21.3141 53.2026 21.0453 51.291 21.7871 49.574C22.4292 46.1849 23.6041 42.8058 25.9787 40.2303C27.6414 38.099 30.2897 37.1257 32.8684 36.6915C38.9617 35.5884 45.1794 35.8529 51.3424 35.7581C54.9167 35.7481 58.5607 35.6433 62.0553 36.5118C63.7728 36.966 64.6938 38.6481 65.2165 40.2153C66.8692 45.0269 67.4367 50.2877 66.5855 55.3139C68.2731 56.1075 69.9607 56.971 71.7926 57.4053C74.0029 57.3504 76.1634 56.6915 78.3887 56.7364C77.3482 55.7182 76.0838 54.8098 75.5412 53.4023C74.8492 51.4357 74.894 49.3144 74.9289 47.258C73.3259 47.3329 71.713 47.3179 70.11 47.1781C69.5425 48.2613 69.2687 49.4542 69.3185 50.677C69.1791 49.4342 68.7659 48.1964 68.9302 46.9436C69.2637 46.9136 69.6022 46.9436 69.9408 46.9286C69.5126 45.3763 69.3334 43.7441 69.5973 42.1519C69.8462 41.1437 71.0459 41.1836 71.8275 40.8392C71.4342 32.9829 71.7279 25.0967 71.3745 17.2355C72.3751 16.8711 73.4304 16.7363 74.4908 16.7763C74.6152 17.0358 74.8691 17.5549 74.9936 17.8095C80.365 17.4651 85.7564 17.8145 91.1377 17.7745C98.6348 17.7645 106.132 17.8244 113.624 17.7496C115.108 14.6051 116.367 10.8466 119.453 8.81518C119.354 8.45581 119.259 8.09644 119.165 7.73707C118.582 7.44757 117.9 7.28785 117.427 6.81867C116.711 4.77724 116.86 2.53615 117.258 0.444809ZM118.204 1.21347C118.269 2.77074 118.353 4.33302 118.498 5.89029C119.682 5.93522 120.872 5.95518 122.062 5.91026C122.206 4.34799 122.286 2.78073 122.356 1.21347C120.972 1.17354 119.588 1.17354 118.204 1.21347ZM119.319 11.236C117.756 13.5868 115.999 15.9128 115.645 18.8177C114.864 23.814 113.619 28.7104 112.668 33.6668C113.599 32.6236 114.864 31.6603 115.003 30.1529C115.605 26.8287 115.859 23.4097 117.129 20.2402C117.706 18.1289 119.15 16.3021 119.2 14.056C120.33 14.5701 121.345 15.3538 121.893 16.4918C123.944 20.5597 124.895 25.0568 125.432 29.549C125.522 31.2759 126.717 32.5387 127.891 33.6668C126.985 28.8252 125.716 24.0536 124.989 19.1671C124.312 16.0326 123.018 11.7401 119.319 11.236ZM72.5742 18.0341C72.2655 20.924 72.5144 23.8389 72.4945 26.7389C72.6887 31.5205 72.3751 36.3221 72.8828 41.0888C75.586 40.9241 78.304 40.8143 81.0122 40.9341C81.1416 41.0189 81.3955 41.1836 81.5249 41.2635C81.8087 43.0603 82.1173 45.3214 80.8678 46.8238C79.2549 47.8021 77.2586 47.288 75.4864 47.278C75.7851 49.4791 75.8399 51.8749 77.164 53.7616C78.309 54.4005 79.6183 54.7349 80.7433 55.4387C80.2157 55.5735 79.1603 55.833 78.6326 55.9678C82.4658 55.6184 86.3836 55.7681 90.1073 56.8463C90.2466 55.8829 90.3711 54.9146 90.3562 53.9363C89.7986 53.9264 89.2411 53.9114 88.6835 53.8964C89.3854 53.8764 90.0873 53.8615 90.7893 53.8465C90.9386 53.2126 91.5907 52.2143 92.0985 53.1926C93.0095 55.9828 94.0151 58.7579 94.8066 61.588C95.0107 65.027 97.1016 67.867 98.6398 70.8118C99.7997 69.7936 100.631 68.421 101.91 67.5226C103.364 66.3147 105.201 65.7707 106.963 65.2017C104.927 66.9186 101.91 67.6374 100.591 70.173C99.9092 71.4857 98.6448 73.0479 99.506 74.5553C101.831 79.0774 103.832 83.7542 105.739 88.466C106.819 91.0964 108.472 93.8765 111.369 94.7301C117.178 96.2923 123.371 96.2674 129.181 94.735C132.078 93.8815 133.736 91.1114 134.816 88.481C136.678 83.914 138.58 79.3569 140.855 74.9796C141.571 73.9264 141.168 72.6287 141.223 71.4457C140.163 71.2112 140.008 69.9434 139.341 69.2596C137.828 67.5226 135.657 66.5792 133.691 65.4762C133.706 65.4013 133.731 65.2416 133.746 65.1667C136.862 66.2249 140.576 67.862 141.467 71.3709C142.945 68.9202 144.583 66.4844 145.395 63.7093C145.758 60.3701 147.242 57.3154 148.123 54.106C148.217 53.4272 148.67 52.963 149.218 52.6087C149.327 52.9131 149.551 53.5221 149.661 53.8265C150.348 53.8515 151.05 53.8415 151.742 53.9164C151.359 53.9264 150.587 53.9413 150.199 53.9463C150.189 54.9196 150.308 55.8829 150.452 56.8463C154.191 55.7631 158.119 55.6134 161.972 55.9728C161.429 55.833 160.354 55.5585 159.811 55.4237C160.946 54.7349 162.271 54.4005 163.406 53.7367C164.73 51.86 164.77 49.4691 165.073 47.278C163.401 47.3229 161.618 47.6823 160.02 47.0334C158.696 46.2647 158.88 44.4878 158.801 43.1751C158.925 42.4314 158.622 41.2335 159.548 40.9341C162.256 40.8043 164.979 40.949 167.692 41.0738C168.16 36.4569 167.881 31.81 168.055 27.1831C168.055 24.1234 168.269 21.0588 168.005 18.0041C167.473 17.9243 166.945 17.9442 166.422 18.069C166.502 18.6081 166.661 19.6912 166.741 20.2352C166.995 20.1154 167.508 19.8858 167.762 19.766C167.617 20.909 167.493 22.0521 167.264 23.1801C167.055 24.3381 166.88 25.501 166.786 26.674C166.358 25.8654 166.059 24.6325 164.879 24.8871C152.693 24.8671 140.506 24.9869 128.32 25.0668C128.578 26.3396 128.867 27.6073 129.216 28.8602C141.089 28.7903 152.966 28.9101 164.839 28.7703C165.79 28.7004 166.731 28.5257 167.682 28.4109C167.542 29.4841 167.413 30.5622 167.269 31.6353C166.373 31.0763 165.317 31.1661 164.322 31.1561C152.917 31.1961 141.507 31.1262 130.102 31.1861C130.346 32.1694 130.336 33.8015 131.65 33.9163C134.552 34.3506 137.504 34.1858 140.431 34.2408C148.929 34.1858 157.442 34.3855 165.93 33.8864C166.208 33.4671 166.766 32.6286 167.045 32.2143C167.199 34.5802 167.055 36.951 167.164 39.3169C163.669 38.2188 159.961 38.7728 156.362 38.5432C148.715 38.5882 141.059 38.4085 133.422 38.7079C139.391 40.6945 145.474 43.0104 150.154 47.3778C151.548 48.6955 151.926 51.0464 153.897 51.7152C156.64 52.6137 159.577 52.5088 162.4 53.0379C162.36 53.1777 162.286 53.4572 162.251 53.5919C162.071 53.6668 161.713 53.8066 161.539 53.8814C158.383 53.6468 155.167 53.547 152.075 52.8882C150.866 51.5705 150.532 49.574 148.929 48.6057C146.868 47.1931 145.25 45.1816 142.985 44.0536C139.954 42.4664 136.867 40.9241 133.596 39.9009C133.771 42.4314 133.676 44.987 134.154 47.4926C137.898 47.5924 141.636 47.0683 145.375 47.1182C146.116 47.1182 146.316 47.7871 146.49 48.3711C142.542 48.1914 138.604 48.6406 134.662 48.6356C134.562 48.98 134.363 49.6738 134.264 50.0182C129.868 49.6438 125.462 48.7105 121.022 49.2246C120.827 51.4607 120.743 53.7067 120.693 55.9478C125.029 56.0277 129.35 56.6865 133.482 58.0242C137.021 59.2221 140.74 60.1505 143.827 62.3616C136.225 60.0107 128.802 55.9378 120.608 56.3721C120.235 64.5628 120.404 72.7684 120.683 80.9541C120.27 80.9491 119.449 80.9392 119.035 80.9342C119 72.7185 119.205 64.5129 119.185 56.3022C113.46 56.2623 108.029 58.3037 102.717 60.2104C100.731 60.9042 98.8638 61.9673 96.768 62.3167C99.0231 60.7844 101.567 59.7612 104.166 58.9875C108.999 57.2555 114.057 56.0177 119.215 56.0027C119.264 53.6818 119.239 51.3608 119.279 49.0449C116.128 49.1447 112.962 49.0998 109.846 49.6039C108.681 49.8585 107.506 50.0481 106.311 50.0282C106.207 49.6838 105.998 48.985 105.893 48.6356C101.94 48.6306 98.0026 48.2014 94.045 48.3611C94.259 47.7971 94.4781 47.1083 95.1949 47.1182C98.9285 47.0783 102.652 47.5824 106.386 47.5026C106.874 44.997 106.799 42.4364 106.963 39.9009C103.693 40.9291 100.596 42.4664 97.5645 44.0586C95.3094 45.1866 93.6965 47.1881 91.6356 48.6007C90.0226 49.569 89.6941 51.5805 88.4744 52.8982C86.0899 53.4871 83.5958 53.4272 81.1665 53.7616C80.2256 53.7816 79.1802 54.126 78.319 53.5919C78.2792 53.4522 78.1945 53.1777 78.1547 53.0379C80.9674 52.5138 83.8995 52.6137 86.6425 51.7202C88.6238 51.0713 89.0021 48.7105 90.391 47.3878C94.9958 43.1502 100.89 40.6845 106.809 38.9076C105.425 38.5782 104.001 38.5133 102.587 38.5432C95.4538 38.6181 88.3201 38.4234 81.1864 38.6031C78.5779 38.663 75.9096 38.4584 73.3956 39.3069C73.5051 36.9111 73.3657 34.5053 73.5051 32.1095C73.7839 32.5537 74.3464 33.4471 74.6252 33.8914C84.1036 34.4005 93.6069 34.1958 103.1 34.2308C105.261 34.121 107.511 34.3755 109.602 33.6967C110.209 33.0079 110.269 32.0446 110.458 31.1861C98.3362 31.1711 86.2094 31.1112 74.0876 31.221L73.3558 32.1344C73.2064 30.8916 73.0322 29.6488 72.8779 28.406C73.8337 28.5257 74.7845 28.7004 75.7453 28.7703C87.6082 28.9101 99.4761 28.7903 111.339 28.8602C111.693 27.6073 111.976 26.3396 112.235 25.0668C104.877 24.937 97.5197 25.0468 90.162 24.9121C84.9698 24.957 79.7527 24.7124 74.5754 25.0169C74.3763 25.7157 73.988 27.1082 73.7938 27.807C73.7839 26.2397 73.5748 24.6974 73.306 23.1651C73.067 22.0421 72.9376 20.9041 72.7982 19.766C73.067 19.8858 73.5997 20.1254 73.8685 20.2452C73.9133 19.7361 74.0079 18.7179 74.0577 18.2088C73.5848 17.8194 73.0919 17.7596 72.5742 18.0341ZM74.6103 18.648C74.4609 20.2103 74.3713 21.7825 74.2867 23.3548C76.5617 23.789 78.8865 23.6592 81.1864 23.7341C90.3114 23.824 99.4413 23.7591 108.566 23.7641C109.841 23.7141 111.17 23.9038 112.404 23.5145C113.236 22.0021 113.629 20.3051 114.132 18.663C100.96 18.628 87.7825 18.663 74.6103 18.648ZM126.398 18.663C126.936 20.3051 127.329 22.0121 128.165 23.5295C128.922 23.784 129.733 23.7341 130.52 23.7641C140.466 23.7541 150.418 23.824 160.364 23.7291C162.34 23.6792 164.337 23.7341 166.288 23.3398C166.183 21.7725 166.099 20.2103 165.949 18.648C152.767 18.663 139.58 18.628 126.398 18.663ZM117.173 31.1661C114.48 32.0246 112.175 34.126 111.02 36.7164C109.716 39.272 109.995 42.2268 109.96 44.997C112.071 45.1068 114.197 44.8322 116.292 45.2016C116.113 44.7923 115.765 43.9837 115.585 43.5744C118.692 43.1702 121.823 43.1901 124.934 43.5645C124.83 43.9538 124.621 44.7374 124.516 45.1317C124.247 45.0319 123.71 44.8322 123.441 44.7324L123.132 44.5877C121.151 43.9388 118.946 44.1385 116.949 44.6176C118.737 45.1517 120.723 44.4679 122.425 45.2415C122.455 45.3663 122.51 45.6159 122.54 45.7407C121.121 45.566 119.697 45.6408 118.274 45.6059C117.487 45.2615 116.606 45.1068 115.814 45.546C113.081 45.7257 110.159 46.0701 108.068 48.0366C111.912 48.1365 115.75 47.807 119.593 47.7172C123.894 47.7072 128.185 48.1514 132.491 48.0366C130.132 45.8305 126.756 45.6209 123.71 45.541C125.92 44.6026 128.29 45.1717 130.6 44.997C130.585 43.4047 130.659 41.8025 130.495 40.2153C130.231 37.1906 128.603 34.2907 126.104 32.5637C123.64 30.4873 120.15 30.7818 117.173 31.1661ZM70.6178 41.8624C70.6725 43.0554 70.4634 44.3331 70.9613 45.4661C71.6333 45.8954 72.4796 45.8255 73.2413 45.8954C75.4416 45.9253 77.6569 46.1 79.8473 45.7956C79.9867 44.5677 80.0713 43.3399 80.146 42.107C76.9699 42.0771 73.7938 41.8425 70.6178 41.8624ZM160.414 42.112C160.488 43.3448 160.573 44.5777 160.717 45.8105C163.56 46.0501 166.462 46.0701 169.285 45.6558C170.35 44.7923 169.768 43.0603 169.937 41.8525C166.761 41.8525 163.59 42.0721 160.414 42.112ZM54.0007 54.8997C51.6859 55.9079 49.2914 56.7364 47.1458 58.0891C47.5092 66.4395 46.4439 74.7699 46.5384 83.1203C46.4787 87.6175 47.1209 92.1745 46.2397 96.6218C45.4184 100.61 41.1819 102.751 37.4583 103.14C32.4602 103.39 27.4671 103.804 22.4591 103.814C19.1387 103.59 15.8133 103.45 12.4879 103.335C11.9452 103.265 11.4474 103.525 10.9496 103.689C14.0361 104.428 17.232 104.648 20.2737 105.621C26.9245 106.769 33.65 107.518 40.3755 108.077C42.3269 108.516 44.3032 108.052 46.2397 107.747C45.8614 107.642 45.1047 107.433 44.7264 107.328C47.5839 106.854 50.2422 105.631 53.0847 105.122C53.0996 102.981 53.5029 100.834 54.2845 98.8379C55.1556 96.9312 57.3361 96.2324 59.2576 95.9679C64.3951 95.3689 69.5773 95.3889 74.7248 94.9397C80.3849 94.8548 86.0053 93.9714 91.6555 93.8965C86.5728 94.8149 81.4054 94.8798 76.268 95.2292C71.9221 95.4039 67.596 95.8281 63.2551 96.0527C60.7262 96.5219 57.7592 96.1476 55.6734 97.9095C53.9509 100.021 53.8812 102.946 53.6024 105.536C51.3672 106.36 48.8931 106.604 46.7326 107.463L46.7824 107.672C49.366 107.657 51.885 106.924 54.4438 106.624C55.2403 104.753 55.4593 102.616 56.659 100.934C58.0031 99.2572 60.3877 99.5466 62.2893 99.2621C74.2319 98.5334 86.1646 97.7248 98.1072 97.0211C102.249 96.8114 106.396 97.1608 110.533 97.3754C116.954 98.4985 123.551 98.4935 129.977 97.3854C134.448 97.1508 138.928 96.7465 143.403 97.0859C153.529 97.605 163.635 98.4535 173.765 98.9427C176.722 99.2621 179.779 99.0924 182.651 99.9559C185.11 101.209 185.071 104.388 186.116 106.624C188.64 107.019 191.154 107.453 193.688 107.792C193.678 107.593 193.663 107.198 193.653 106.999C191.338 107.024 189.163 106.12 186.957 105.536C186.679 102.946 186.609 100.021 184.891 97.9095C182.796 96.1376 179.814 96.5269 177.275 96.0527C172.954 95.8281 168.648 95.3989 164.327 95.2342C159.169 94.8748 153.977 94.8249 148.879 93.8815C151.727 93.7468 154.54 94.3357 157.377 94.4306C165.019 95.0395 172.685 95.2342 180.326 95.8481C182.492 96.0577 185.061 96.5618 186.191 98.6582C187.052 100.69 187.45 102.916 187.475 105.122C190.278 105.606 192.891 106.879 195.739 107.168C195.062 107.413 194.395 107.682 193.762 108.022C195.246 107.712 196.7 108.107 198.163 108.296C205.531 107.603 212.913 106.914 220.211 105.636C223.278 104.653 226.509 104.443 229.62 103.669C229.117 103.515 228.605 103.295 228.072 103.34C224.751 103.45 221.426 103.59 218.111 103.814C213.098 103.804 208.09 103.39 203.087 103.14C199.184 102.751 194.768 100.345 194.205 96.0877C193.424 90.9566 194.235 85.7657 193.986 80.6097C193.986 73.0929 193.041 65.601 193.414 58.0891C191.353 56.8163 189.093 55.9478 186.863 55.0444C184.244 53.4771 180.959 53.5969 178.141 54.5253C176.533 55.3788 174.811 56.0476 173.357 57.1757C172.57 57.6848 171.859 58.5433 170.828 58.4285C168.19 58.5333 165.526 57.6249 162.918 58.1739C159.831 59.8859 156.81 61.7177 153.828 63.6044C152.22 64.6127 150.338 64.9621 148.546 65.4712C147.182 67.2231 145.878 69.015 144.568 70.8019C140.68 75.1193 138.853 80.7744 136.648 86.0452C135.155 89.9983 133.333 94.5853 129.007 96.0977C123.63 97.4852 117.93 97.5102 112.509 96.3522C109.283 95.6884 106.889 92.9881 105.604 90.0732C103.06 84.3931 101.238 78.3337 97.8334 73.0829C95.7674 70.6372 93.9852 67.9768 92.0039 65.4662C90.0774 64.9321 88.0612 64.5428 86.3836 63.3948C83.5212 61.563 80.604 59.8211 77.642 58.1739C74.7347 57.54 71.7379 58.8128 68.8157 58.2987C66.9539 57.001 65.1169 55.6084 62.9216 54.9047C62.9962 54.7699 63.1555 54.4954 63.2302 54.3556C62.6726 54.3905 62.1051 54.4654 61.5675 54.2907C59.0884 53.6618 56.2707 53.567 54.0007 54.8997ZM91.4912 61.5331C88.6536 61.2935 85.7812 61.2885 83.0433 60.3951C84.8752 61.7577 86.9013 62.9057 89.1216 63.4847C90.1322 63.8141 91.312 63.859 92.1184 64.6376C94.5079 67.0035 95.8023 70.2928 98.3361 72.5139C97.5596 69.9534 96.1557 67.6623 95.0705 65.2316C93.4277 61.8026 92.3275 58.139 91.4115 54.4554C90.5852 56.7464 90.8639 59.2321 91.4912 61.5331ZM146.226 63.5895C145.026 66.6441 143.09 69.4043 142.293 72.6137C144.628 70.2229 146.072 67.1183 148.372 64.6975C149.183 63.874 150.383 63.8241 151.423 63.4896C153.076 63.0704 154.564 62.1969 156.147 61.573C155.869 61.3634 155.595 61.1537 155.316 60.9491C153.265 61.3135 151.179 61.3184 149.113 61.5381C149.183 61.009 149.317 59.9558 149.387 59.4267C150.248 60.4799 151.647 59.7462 152.787 60.0007C154.121 60.2353 155.475 60.1255 156.79 59.8261L156.715 61.1837C156.979 60.7345 157.218 60.2753 157.427 59.7961C158.846 59.0175 160.429 58.3786 161.429 57.0409C157.845 56.9111 154.286 57.2805 150.726 57.6648C150.632 58.124 150.443 59.0374 150.353 59.4966C150.114 59.1672 149.88 58.8428 149.646 58.5183C149.676 57.1507 149.551 55.7881 149.307 54.4455C148.237 57.4801 147.54 60.6446 146.226 63.5895ZM79.1304 57.0409C81.2212 59.5715 84.7259 60.44 87.887 60.0806C87.9019 59.3469 87.8472 58.5283 88.8577 58.713C88.9075 59.0624 89.0121 59.7662 89.0668 60.1205L90.5453 59.9658C90.3114 59.2021 90.0724 58.4435 89.8185 57.6898C86.2691 57.2506 82.7097 56.9261 79.1304 57.0409Z" fill="#7044F2"/>
<path d="M112.783 39.0474C112.778 38.6332 112.768 38.2189 112.758 37.8096C112.932 38.743 113.758 39.0125 114.6 38.7529C118.836 38.2089 123.122 38.6232 127.354 38.728C127.458 38.4984 127.667 38.0442 127.777 37.8146C127.777 38.2339 127.782 38.6531 127.797 39.0774C128.051 39.267 128.563 39.6514 128.822 39.846C129.245 41.3983 129.41 43.0055 129.24 44.6127C127.085 44.8623 125.328 43.6644 123.511 42.7609C121.405 42.3167 119.165 42.3167 117.059 42.7609C115.227 43.6544 113.465 44.8972 111.299 44.5828C111.155 42.9855 111.319 41.3883 111.742 39.846C112.001 39.6464 112.524 39.2471 112.783 39.0474Z" fill="#7044F2"/>
<path d="M65.8038 62.2018C67.6507 62.6261 69.0944 63.9438 70.8069 64.6875C75.3619 66.7888 80.0065 68.6855 84.6163 70.6671C86.3387 71.4407 88.1906 72.1195 89.5198 73.5271C87.7077 73.0928 86.1446 72.0446 84.4321 71.3608C80.1957 69.6488 76.0439 67.7571 71.8523 65.9403C69.7017 64.9471 67.4864 63.9238 65.8038 62.2018Z" fill="#7044F2"/>
<path d="M169.389 64.8622C171.241 64.0736 172.819 62.7259 174.766 62.137C173.048 64.0237 170.649 65.0269 168.389 66.0801C164.361 67.817 160.379 69.6488 156.312 71.281C154.53 71.9848 152.902 73.0629 151.035 73.542C152.349 72.1245 154.201 71.4507 155.918 70.677C160.414 68.7504 164.934 66.8837 169.389 64.8622Z" fill="#7044F2"/>
<path d="M112.305 65.6659C113.893 64.6028 115.71 63.9489 117.611 63.7542C117.109 65.8406 117.343 67.9918 117.367 70.1131C117.532 73.8217 117.492 77.5402 117.801 81.2437C117.402 81.1988 116.611 81.1139 116.213 81.074C115.939 77.7598 116.093 74.4256 115.824 71.1114C115.69 69.604 115.645 68.0717 115.984 66.5893C115.068 67.8022 113.714 68.5459 112.534 69.4693C111.842 68.3562 111.971 67.2232 113.181 66.5643C112.962 66.3397 112.524 65.8905 112.305 65.6659ZM113.221 66.7041C114.59 66.2798 116.008 65.7058 116.785 64.4181C115.471 64.9122 113.883 65.3115 113.221 66.7041Z" fill="#7044F2"/>
<path d="M122.953 63.7542C124.82 63.9639 126.652 64.5578 128.19 65.6609C128.051 65.9055 127.767 66.3896 127.628 66.6342C127.881 66.8988 128.389 67.4228 128.638 67.6874C128.414 68.2763 128.185 68.8603 127.936 69.4393C126.806 68.5209 125.512 67.7772 124.596 66.6192C125.099 68.9252 124.641 71.2711 124.601 73.5971C124.501 76.0877 124.561 78.5883 124.347 81.079C123.949 81.1189 123.157 81.1988 122.759 81.2387C123.068 77.5402 123.028 73.8266 123.187 70.1181C123.212 67.9968 123.456 65.8456 122.953 63.7542ZM123.715 64.3682C124.476 65.4912 125.701 66.3397 127.05 66.5144C126.667 65.1269 124.83 64.9422 123.715 64.3682Z" fill="#7044F2"/>
<path d="M59.2726 78.4185C60.766 78.129 62.2894 78.5732 63.7928 78.673C73.2065 79.9308 82.6998 80.5448 92.1035 81.8874C93.1987 82.2119 94.732 82.0272 95.3792 83.1752C97.1613 85.8455 98.2167 88.995 98.4955 92.1944C96.0711 92.0397 93.6617 91.7402 91.2373 91.6603C92.0538 90.8967 92.1633 89.8685 91.9243 88.8203L91.2622 89.0499C91.3319 88.6806 91.4663 87.9468 91.536 87.5775C90.1372 86.5243 88.3052 86.5543 86.6525 86.2897C78.0751 85.1916 69.4529 84.4629 60.9054 83.1402C60.0542 82.8807 58.8494 82.9955 58.3467 82.142C58.2919 80.8642 58.4412 79.4467 59.2726 78.4185Z" fill="#7044F2"/>
<path d="M148.83 81.8276C159.139 80.455 169.514 79.6564 179.829 78.3387C181.865 77.7148 182.223 80.2553 182.238 81.6878C182.348 82.9357 180.789 82.8059 179.958 83.0854C170.49 84.5878 160.912 85.2965 151.418 86.6442C150.154 86.8239 148.222 87.3629 149.298 89.06L148.636 88.8104C148.506 89.8236 148.312 90.9067 149.303 91.5955C146.888 91.8152 144.469 92.0298 142.049 92.1745C142.373 88.9851 143.389 85.8306 145.191 83.1603C145.937 81.9574 147.625 82.177 148.83 81.8276Z" fill="#7044F2"/>
<path d="M114.679 85.7858C115.785 84.5779 117.502 84.2385 119.07 84.3233C121.38 84.3583 124.173 83.8791 125.895 85.8207C126.259 86.9288 125.069 87.912 124.028 87.7473C123.102 87.6824 122.196 87.5127 121.275 87.4129C121.509 86.5145 120.837 85.9704 120.125 85.621C120.937 85.641 121.748 85.656 122.565 85.661L121.514 86.5544C122.381 87.2931 123.56 87.8222 124.666 87.1983C125.631 85.2168 122.819 85.2617 121.584 85.3515C119.672 85.671 117.358 84.7176 115.745 86.0253L115.68 86.6792C116.009 87.0236 116.666 87.7074 116.994 88.0518C115.979 87.7972 114.162 87.2432 114.679 85.7858Z" fill="#7044F2"/>
</svg>
