<svg width="16" height="16" viewBox="0 0 16 16" fill="none" xmlns="http://www.w3.org/2000/svg">
<path d="M8 5.14287V3.42859" stroke="black" stroke-linecap="round" stroke-linejoin="round"/>
<path d="M6.28516 9.71431C6.28516 10.5715 7.05087 10.8572 7.99944 10.8572C8.94801 10.8572 9.71373 10.8572 9.71373 9.71431C9.71373 8.00003 6.28516 8.00003 6.28516 6.28574C6.28516 5.14288 7.05087 5.14288 7.99944 5.14288C8.94801 5.14288 9.71373 5.57717 9.71373 6.28574" stroke="black" stroke-linecap="round" stroke-linejoin="round"/>
<path d="M7.99902 10.8572V12.5715" stroke="black" stroke-linecap="round" stroke-linejoin="round"/>
<path d="M7.99986 15.4286C12.1025 15.4286 15.4284 12.1027 15.4284 8.00001C15.4284 3.89733 12.1025 0.571442 7.99986 0.571442C3.89717 0.571442 0.571289 3.89733 0.571289 8.00001C0.571289 12.1027 3.89717 15.4286 7.99986 15.4286Z" stroke="black" stroke-linecap="round" stroke-linejoin="round"/>
</svg>
