<svg width="16" height="16" viewBox="0 0 16 16" fill="none" xmlns="http://www.w3.org/2000/svg">
<g clip-path="url(#clip0_196_92)">
<path d="M14.2857 0.571442H1.71427C1.08309 0.571442 0.571411 1.08312 0.571411 1.7143V14.2857C0.571411 14.9169 1.08309 15.4286 1.71427 15.4286H14.2857C14.9169 15.4286 15.4286 14.9169 15.4286 14.2857V1.7143C15.4286 1.08312 14.9169 0.571442 14.2857 0.571442Z" stroke="#000001" stroke-linecap="round" stroke-linejoin="round"/>
<path d="M6.28564 6.28573C6.28564 5.94667 6.38619 5.61524 6.57455 5.33332C6.76292 5.05141 7.03066 4.83168 7.3439 4.70193C7.65715 4.57218 8.00183 4.53824 8.33437 4.60438C8.66691 4.67053 8.97237 4.8338 9.21211 5.07355C9.45186 5.31329 9.61513 5.61875 9.68128 5.95129C9.74742 6.28383 9.71347 6.62851 9.58372 6.94176C9.45397 7.255 9.23425 7.52274 8.95234 7.7111C8.67042 7.89947 8.33898 8.00001 7.99993 8.00001V9.14287" stroke="#000001" stroke-linecap="round" stroke-linejoin="round"/>
<path d="M7.99995 12C7.84215 12 7.71423 11.8721 7.71423 11.7143C7.71423 11.5565 7.84215 11.4286 7.99995 11.4286" stroke="#000001" stroke-linecap="round" stroke-linejoin="round"/>
<path d="M8 12C8.1578 12 8.28571 11.8721 8.28571 11.7143C8.28571 11.5565 8.1578 11.4286 8 11.4286" stroke="#000001" stroke-linecap="round" stroke-linejoin="round"/>
</g>
<defs>
<clipPath id="clip0_196_92">
<rect width="16" height="16" fill="white"/>
</clipPath>
</defs>
</svg>
